<svg xmlns="http://www.w3.org/2000/svg" viewBox="0 0 1024 1024">
  <defs>
    <linearGradient id="bg" x1="0" y1="0" x2="0" y2="1">
      <stop offset="0" stop-color="#2F725D"/>
      <stop offset="1" stop-color="#1B4839"/>
    </linearGradient>
    <linearGradient id="sheen" x1="0" y1="0" x2="0" y2="1">
      <stop offset="0" stop-color="#FFFFFF" stop-opacity="0.10"/>
      <stop offset="1" stop-color="#FFFFFF" stop-opacity="0"/>
    </linearGradient>
    <filter id="shadow" x="-20%" y="-20%" width="140%" height="140%">
      <feDropShadow dx="0" dy="14" stdDeviation="14" flood-color="#0B2A20" flood-opacity="0.35"/>
    </filter>
  </defs>
  <!-- macOS icon grid: 824pt rounded square centered in 1024 -->
  <rect x="100" y="100" width="824" height="824" rx="186" fill="url(#bg)"/>
  <rect x="100" y="100" width="824" height="412" rx="186" fill="url(#sheen)"/>
  <!-- the listener -->
  <g filter="url(#shadow)">
    <path fill="#F7F6F2" d="M512 256c-182 0-310 104-310 240 0 82 46 152 120 198l-20 92c-3 15 12 26 24 17l110-72c25 5 50 7 76 7 182 0 310-104 310-242S694 256 512 256z"/>
  </g>
  <g fill="#245F4D">
    <circle cx="444" cy="474" r="30"/>
    <circle cx="580" cy="474" r="30"/>
  </g>
  <path d="M462 566q50 44 100 0" fill="none" stroke="#245F4D" stroke-width="30" stroke-linecap="round"/>
</svg>
